<?xml version="1.0" encoding="UTF-8"?>
<!DOCTYPE svg PUBLIC "-//W3C//DTD SVG 1.1//EN" "http://www.w3.org/Graphics/SVG/1.1/DTD/svg11.dtd">
<!-- Creator: CorelDRAW 2019 (64-Bit) -->
<svg xmlns="http://www.w3.org/2000/svg" xml:space="preserve" width="3.16596in" height="3.41048in" version="1.1" style="shape-rendering:geometricPrecision; text-rendering:geometricPrecision; image-rendering:optimizeQuality; fill-rule:evenodd; clip-rule:evenodd"
viewBox="0 0 2712.76 2922.27"
 xmlns:xlink="http://www.w3.org/1999/xlink"
 xmlns:xodm="http://www.corel.com/coreldraw/odm/2003">
 <defs>
  <style type="text/css">
   <![CDATA[
    .str0 {stroke:black;stroke-width:8.43;stroke-miterlimit:2.61313}
    .fil0 {fill:#002060}
    .fil2 {fill:#D3DAE3}
    .fil1 {fill:#FEFEFE}
   ]]>
  </style>
 </defs>
 <g id="Layer_x0020_1">
  <metadata id="CorelCorpID_0Corel-Layer"/>
  <g id="_2434288993520">
   <path class="fil0 str0" d="M355.97 1740.98l650.94 2.33 -328.28 558.07 -322.66 -560.39zm1175.9 -875.25c27.82,-48.72 54.04,-92.87 82.64,-141.85 23.54,-40.31 53.74,-101.44 81.93,-138l324.3 562.01 -650.39 -0.03 161.52 -282.14zm-859.96 305.43c23.53,5.81 30.83,31.24 51.32,67.35l283.28 491.1 -650.33 0.03 6.99 -22.61c-18,13.46 -24.75,23.56 -31.12,44.34l13.71 -8.15 323.28 562.09 -650.26 -0.61 10.72 -27.73c-18.04,14.38 -15.35,16.27 -23.32,36.59l668.74 1.19c7.48,14.35 12.13,25.49 19.81,39.36l58.07 97.16c31.08,39.79 7.37,18.37 32.57,59.31l149.72 258.56c0.62,1.15 1.44,2.61 2.08,3.74 11.47,20.58 59.37,113.9 79.41,124.75 0.96,0.52 2.74,0.94 3.68,1.37l610.33 11.66c55.58,0.28 73.8,9.2 69.65,-13.1 -20.1,-18.51 -68.84,-112.2 -84.68,-139.69 -29.24,-50.74 -54.23,-91.32 -82.71,-141.7 -22.72,-40.21 -158.74,-262.64 -159.5,-286.2 -18.25,1.62 -4.13,0.03 -16.18,6.44 -14.12,7.5 2.64,19.7 -4.07,3.87 5.92,-7.76 3.83,-16.72 0.63,-25.82l-258.64 -446.07c-47.04,-84.04 -81.46,-108.97 -65.99,-160.47 -4.44,2.87 -8.03,3.27 -14.44,9.7 -42.47,-63.15 -320.59,-552.87 -322.01,-561.4l581.01 -0.03c42.26,-0.16 67.83,-7.64 65.83,9.65 1.49,-0.76 3.3,-1.88 4.4,-2.39l8.82 -4.17c33.84,-12.27 593.83,5.16 685.08,-5.55l293.22 -507.82c14.38,-25.4 29.55,-45.9 40.55,-75.32l-670.01 0c-11.93,-13.19 -7.86,-14.47 -23.12,-26.46l6.48 21.38 -647.81 -0.13c5.03,-25.01 24,-45.71 33.88,-73.06 -15.35,13.25 -20.57,27.11 -29.76,44.04 -10.51,19.37 -15.77,23.35 -29.04,39.82 -17.85,22.14 -34.7,57.79 -49.58,82.93l-196.38 339.07c-25.42,44.19 -83.08,131.05 -94.29,173z"/>
   <path class="fil0 str0" d="M2385.6 2889.97c42.82,-25.94 -26.58,30.05 11.34,-8.64l297.34 -509.25c5.85,-15.34 3.7,12.09 4.18,-20.13 -6.91,-17.09 1.27,-6.12 -14.82,-11.72l-627.05 -1.07c-3.44,7.61 -5.54,0.62 4.45,27.3 -1.63,-1.14 -3.5,-2.81 -4.68,-3.71 -29.64,-22.65 -8.45,-11.59 -16.58,-10.98l-321.63 558.36 649.51 -0.45 -26.4 -50.01c14.96,7.13 -0.12,-10.53 17.28,13.68 10.19,14.18 5.25,9.41 9.11,22.26l17.93 -5.64z"/>
   <path class="fil0 str0" d="M2703.47 2321.02c1.68,-28.29 -13.89,-33.79 -34.51,-72.83 -8.37,-15.83 -11.44,-23.39 -18.26,-34.47l-77.67 -129.54c-0.59,-1.17 -1.2,-2.74 -1.78,-3.94l-121.29 -212.3c-12.54,-22.58 -49.54,-94.28 -69.53,-104.94l-247.86 422.57c-25.9,46.07 -56.93,94.21 -80.19,140.89 85.2,0 617.31,10.64 651.09,-5.43z"/>
   <path class="fil1 str0" d="M2160 2110.19l98.17 -173.1c23.29,-40.78 89.51,-141.75 100.67,-181.16l-649.61 -0.01c9.07,28.54 306.72,542.09 324.34,561.09 24.32,-19.95 98.29,-171.83 126.43,-206.81z"/>
   <path class="fil1 str0" d="M1070.97 492.31c-9.88,27.35 -28.85,48.05 -33.88,73.06l647.81 0.13 -6.48 -21.38c-12.08,-11.25 -64.18,-105.92 -78.31,-130.38l-196.26 -339.22c-12.36,-21.42 -27.81,-52.71 -43.85,-68.74 -15.12,13.39 -26.6,38.43 -37.62,57.69l-107.65 186.01c-19.4,33.8 -132.32,233.34 -143.76,242.83z"/>
   <path class="fil1 str0" d="M1029.11 1707.9c3.53,-22.46 287.04,-508.4 310.39,-542.08 2,-17.29 -23.57,-9.81 -65.83,-9.65l-581.01 0.03c1.43,8.53 279.55,498.25 322.01,561.4 6.42,-6.43 10,-6.82 14.44,-9.7z"/>
   <path class="fil1 str0" d="M363.17 1707.03l-6.99 22.61 650.33 -0.03 -283.28 -491.1c-20.5,-36.11 -27.79,-61.55 -51.32,-67.35 -3.81,27.34 -308.45,535.63 -308.74,535.87z"/>
   <path class="fil1 str0" d="M332.05 1751.37c-3.48,18.72 -291.55,517.31 -302.55,525.6l-10.72 27.73 650.26 0.61 -323.28 -562.09 -13.71 8.15z"/>
   <path class="fil1 str0" d="M1370.35 1147.87l650.39 0.03 -324.3 -562.01c-28.19,36.56 -58.39,97.69 -81.93,138 -28.6,48.98 -54.82,93.12 -82.64,141.85l-161.52 282.14z"/>
   <path class="fil0 str0" d="M1703.98 2895.62c17.23,-12.08 74.3,-117.88 85.28,-137.36l243.97 -424.14 -648.34 0.47 238.86 415.93c22.2,36.33 68.23,109.86 80.24,145.11z"/>
   <polygon class="fil1 str0" points="678.64,2301.38 1006.92,1743.31 355.97,1740.98 "/>
   <path class="fil2 str0" d="M1703.98 2895.62c-12.01,-35.25 -58.04,-108.78 -80.24,-145.11l-238.86 -415.93 648.34 -0.47 -243.97 424.14c-10.98,19.48 -68.04,125.28 -85.28,137.36zm456.02 -785.42c-8.91,26.37 -46.78,83.4 -62.44,110.32 -19.24,33.09 -43.22,80.17 -64,108.84l-660.22 0.61c0.76,23.56 136.78,245.99 159.5,286.2 28.48,50.39 53.47,90.96 82.71,141.7 15.84,27.49 64.58,121.18 84.68,139.69l10.69 16.93c132.24,7.44 377.55,0.92 529.89,0.92 101.39,0 124.2,13.6 144.78,-25.44l-17.93 5.64c-3.87,-12.85 1.08,-8.08 -9.11,-22.26 -17.4,-24.21 -2.32,-6.55 -17.28,-13.68l26.4 50.01 -649.51 0.45 321.63 -558.36c8.13,-0.62 -13.06,-11.67 16.58,10.98 1.17,0.89 3.05,2.56 4.68,3.71 -9.99,-26.68 -7.89,-19.68 -4.45,-27.3l627.05 1.07c16.08,5.6 7.9,-5.37 14.82,11.72 9.49,-18.64 14.46,-14.6 5.01,-30.93 -33.77,16.07 -565.89,5.43 -651.09,5.43 23.26,-46.67 54.29,-94.82 80.19,-140.89l247.86 -422.57 -12.33 -9.22c-15.27,31.49 -34.92,61.83 -52.75,91.72l-155.35 264.7z"/>
  </g>
 </g>
</svg>
