<?xml version="1.0" encoding="UTF-8"?>
<!DOCTYPE svg PUBLIC "-//W3C//DTD SVG 1.1//EN" "http://www.w3.org/Graphics/SVG/1.1/DTD/svg11.dtd">
<!-- Creator: CorelDRAW 2019 (64-Bit) -->
<svg xmlns="http://www.w3.org/2000/svg" xml:space="preserve" width="2.42498in" height="2.09005in" version="1.1" style="shape-rendering:geometricPrecision; text-rendering:geometricPrecision; image-rendering:optimizeQuality; fill-rule:evenodd; clip-rule:evenodd"
viewBox="0 0 1137.62 980.5"
 xmlns:xlink="http://www.w3.org/1999/xlink"
 xmlns:xodm="http://www.corel.com/coreldraw/odm/2003">
 <defs>
  <style type="text/css">
   <![CDATA[
    .str0 {stroke:#373435;stroke-width:9.23;stroke-miterlimit:2.61313}
    .fil0 {fill:#FEFEFE}
   ]]>
  </style>
 </defs>
 <g id="Layer_x0020_1">
  <metadata id="CorelCorpID_0Corel-Layer"/>
  <path class="fil0 str0" d="M31.72 742.19c-18.52,74.19 -53.03,154.81 5.39,207.22 60.79,54.54 135.73,12.27 199.73,-14.85l760.19 -314.97c67.16,-28.73 138.11,-44.33 135.98,-132.63 -2.07,-85.78 -77.05,-100.75 -145.03,-130.03 -60.96,-26.26 -127.65,-53.9 -189.21,-78.12 -126.55,-49.79 -252.66,-105.15 -377.73,-156.48 -62.62,-25.7 -125.79,-52 -188.74,-78.41 -64.48,-27.06 -140.82,-67.76 -198.65,-9.79 -52.49,52.62 -18.39,137.55 -0.65,209.28 11.91,48.17 36.9,171.62 56.03,211.04l402.13 0c14.3,0 25.99,11.69 25.99,25.99l0 27.99c0,14.3 -11.69,25.99 -25.99,25.99l-405.83 0c-19.05,47.32 -41.84,160.53 -53.63,207.78z"/>
 </g>
</svg>
